<svg width="188" height="50" viewBox="0 0 188 50" fill="none" xmlns="http://www.w3.org/2000/svg">
<rect width="188" height="50" rx="10" fill="#FFC229"/>
<rect x="14" width="160" height="50" rx="5" fill="#FFC229"/>
<path fill-rule="evenodd" clip-rule="evenodd" d="M47.1868 25.5026C47.1547 22.0066 50.1076 20.3058 50.2426 20.2266C48.5703 17.837 45.9783 17.5105 45.0674 17.4845C42.8904 17.26 40.7787 18.7612 39.6697 18.7612C38.5386 18.7612 36.8309 17.5062 34.9904 17.5431C32.6219 17.5789 30.4062 18.9228 29.191 21.0098C26.6831 25.2651 28.5535 31.5184 30.9563 34.9579C32.1582 36.6425 33.5627 38.5234 35.401 38.4572C37.1995 38.3845 37.8713 37.3334 40.0416 37.3334C42.192 37.3334 42.8229 38.4572 44.6977 38.4149C46.6279 38.3845 47.8431 36.7228 49.003 35.023C50.392 33.0923 50.9498 31.1908 50.9719 31.0932C50.9266 31.078 47.2234 29.6928 47.1868 25.5026V25.5026Z" fill="black"/>
<path fill-rule="evenodd" clip-rule="evenodd" d="M42.8278 13.2387C43.7951 12.0531 44.457 10.4402 44.2732 8.80334C42.8732 8.86409 41.1223 9.75246 40.114 10.912C39.222 11.9338 38.4251 13.6086 38.631 15.1836C40.2037 15.2985 41.8184 14.4058 42.8278 13.2387V13.2387Z" fill="black"/>
<path fill-rule="evenodd" clip-rule="evenodd" d="M77.3935 33.2652H74.6749L73.1856 28.7804H68.0093L66.5907 33.2652H63.9439L69.0723 17.997H72.2399L77.3935 33.2652V33.2652ZM72.7366 26.8989L71.3899 22.912C71.2474 22.5048 70.9804 21.5456 70.5866 20.0358H70.5387C70.3819 20.6852 70.1293 21.6443 69.7821 22.912L68.4593 26.8989H72.7366V26.8989Z" fill="black"/>
<path fill-rule="evenodd" clip-rule="evenodd" d="M90.5823 27.6251C90.5823 29.4975 90.0543 30.9775 88.9985 32.064C88.0527 33.0312 86.8784 33.5142 85.4765 33.5142C83.9634 33.5142 82.8764 32.9933 82.2144 31.9516H82.1665V37.7511H79.6142V25.8801C79.6142 24.703 79.5819 23.4949 79.5197 22.2558H81.7643L81.9067 24.0008H81.9546C82.8058 22.686 84.0975 22.0298 85.8309 22.0298C87.186 22.0298 88.3173 22.5426 89.2223 23.5694C90.1297 24.5974 90.5823 25.9489 90.5823 27.6251V27.6251ZM87.9821 27.7146C87.9821 26.643 87.7307 25.7596 87.2255 25.0643C86.6736 24.3392 85.9326 23.9767 85.0036 23.9767C84.3739 23.9767 83.8017 24.1786 83.2905 24.5767C82.7782 24.9783 82.443 25.5026 82.2862 26.152C82.2072 26.4549 82.1676 26.7027 82.1676 26.8977V28.7334C82.1676 29.5342 82.4238 30.2099 82.9362 30.7618C83.4486 31.3136 84.1142 31.589 84.933 31.589C85.8943 31.589 86.6425 31.2333 87.1776 30.5243C87.7139 29.8141 87.9821 28.8779 87.9821 27.7146V27.7146Z" fill="black"/>
<path fill-rule="evenodd" clip-rule="evenodd" d="M103.795 27.6251C103.795 29.4975 103.267 30.9775 102.21 32.064C101.265 33.0312 100.091 33.5142 98.6891 33.5142C97.176 33.5142 96.089 32.9933 95.4282 31.9516H95.3803V37.7511H92.828V25.8801C92.828 24.703 92.7957 23.4949 92.7335 22.2558H94.9781L95.1205 24.0008H95.1684C96.0184 22.686 97.31 22.0298 99.0447 22.0298C100.399 22.0298 101.53 22.5426 102.437 23.5694C103.341 24.5974 103.795 25.9489 103.795 27.6251V27.6251ZM101.195 27.7146C101.195 26.643 100.942 25.7596 100.437 25.0643C99.885 24.3392 99.1464 23.9767 98.2162 23.9767C97.5853 23.9767 97.0143 24.1786 96.5019 24.5767C95.9896 24.9783 95.6556 25.5026 95.4988 26.152C95.4209 26.4549 95.3802 26.7027 95.3802 26.8977V28.7334C95.3802 29.5342 95.6364 30.2099 96.1464 30.7618C96.6588 31.3125 97.3244 31.589 98.1456 31.589C99.1069 31.589 99.8551 31.2333 100.39 30.5243C100.927 29.8141 101.195 28.8779 101.195 27.7146V27.7146Z" fill="black"/>
<path fill-rule="evenodd" clip-rule="evenodd" d="M118.567 28.9835C118.567 30.2823 118.097 31.3389 117.152 32.1546C116.115 33.0461 114.67 33.4912 112.813 33.4912C111.099 33.4912 109.724 33.1746 108.684 32.5401L109.275 30.5014C110.396 31.1508 111.625 31.4766 112.965 31.4766C113.926 31.4766 114.674 31.2678 115.212 30.8525C115.747 30.4371 116.014 29.8796 116.014 29.1843C116.014 28.5648 115.794 28.0427 115.352 27.6194C114.913 27.196 114.179 26.8025 113.154 26.4388C110.365 25.4418 108.971 23.9813 108.971 22.0608C108.971 20.8056 109.46 19.7765 110.438 18.9757C111.412 18.1737 112.712 17.7733 114.338 17.7733C115.788 17.7733 116.992 18.0154 117.953 18.4984L117.315 20.4924C116.417 20.0243 115.402 19.7903 114.266 19.7903C113.368 19.7903 112.667 20.0025 112.164 20.4247C111.739 20.8022 111.526 21.2622 111.526 21.8072C111.526 22.4107 111.769 22.9098 112.257 23.3021C112.682 23.6647 113.455 24.057 114.575 24.4804C115.946 25.0093 116.953 25.6277 117.6 26.3367C118.245 27.0434 118.567 27.928 118.567 28.9835V28.9835Z" fill="black"/>
<path fill-rule="evenodd" clip-rule="evenodd" d="M127.006 24.0915H124.193V29.4367C124.193 30.7962 124.688 31.4754 125.682 31.4754C126.138 31.4754 126.516 31.4376 126.816 31.3619L126.886 33.2193C126.383 33.3994 125.721 33.4901 124.901 33.4901C123.893 33.4901 123.106 33.1952 122.537 32.6067C121.971 32.017 121.686 31.028 121.686 29.6386V24.0892H120.01V22.2535H121.686V20.2377L124.193 19.5126V22.2535H127.006V24.0915V24.0915Z" fill="black"/>
<path fill-rule="evenodd" clip-rule="evenodd" d="M139.699 27.6699C139.699 29.3621 139.194 30.7515 138.186 31.838C137.129 32.9566 135.726 33.5142 133.977 33.5142C132.291 33.5142 130.949 32.9784 129.948 31.9068C128.948 30.8352 128.447 29.4826 128.447 27.8523C128.447 26.1463 128.962 24.7488 129.995 23.6624C131.026 22.5747 132.417 22.0309 134.166 22.0309C135.851 22.0309 137.208 22.5667 138.231 23.6394C139.211 24.68 139.699 26.0235 139.699 27.6699V27.6699ZM137.051 27.749C137.051 26.7337 136.825 25.8629 136.366 25.1366C135.831 24.2578 135.066 23.8196 134.075 23.8196C133.049 23.8196 132.27 24.259 131.735 25.1366C131.276 25.864 131.05 26.7486 131.05 27.7949C131.05 28.8103 131.276 29.6811 131.735 30.4062C132.286 31.285 133.057 31.7232 134.052 31.7232C135.027 31.7232 135.792 31.2758 136.343 30.3832C136.814 29.6432 137.051 28.7632 137.051 27.749V27.749Z" fill="black"/>
<path fill-rule="evenodd" clip-rule="evenodd" d="M147.995 24.407C147.742 24.3622 147.473 24.3393 147.191 24.3393C146.293 24.3393 145.598 24.664 145.11 25.3145C144.685 25.8881 144.472 26.6132 144.472 27.4886V33.2652H141.921L141.945 25.7229C141.945 24.454 141.912 23.2987 141.849 22.2569H144.072L144.165 24.3634H144.236C144.505 23.6394 144.93 23.0566 145.512 22.6195C146.081 22.226 146.695 22.0298 147.357 22.0298C147.593 22.0298 147.806 22.0458 147.995 22.0745V24.407V24.407Z" fill="black"/>
<path fill-rule="evenodd" clip-rule="evenodd" d="M159.41 27.2396C159.41 27.6779 159.38 28.0473 159.316 28.3491H151.659C151.689 29.4367 152.059 30.2685 152.77 30.8421C153.416 31.355 154.25 31.612 155.275 31.612C156.408 31.612 157.443 31.4387 158.373 31.0911L158.773 32.7891C157.686 33.2434 156.402 33.4694 154.922 33.4694C153.14 33.4694 151.742 32.9669 150.724 31.963C149.709 30.9592 149.2 29.6111 149.2 27.92C149.2 26.2598 149.673 24.8774 150.62 23.7748C151.611 22.5977 152.951 22.0091 154.637 22.0091C156.292 22.0091 157.546 22.5977 158.397 23.7748C159.071 24.7099 159.41 25.8663 159.41 27.2396V27.2396ZM156.976 26.6052C156.992 25.8801 156.826 25.2537 156.48 24.7248C156.038 24.0444 155.36 23.7048 154.446 23.7048C153.612 23.7048 152.933 24.0364 152.415 24.7018C151.99 25.2307 151.737 25.8652 151.659 26.604H156.976V26.6052Z" fill="black"/>
</svg>
