<svg width="170" height="50" viewBox="0 0 170 50" fill="none" xmlns="http://www.w3.org/2000/svg">
<rect width="170" height="50" rx="5" fill="#054FD6"/>
<path fill-rule="evenodd" clip-rule="evenodd" d="M63.8349 39.3438H61.1163L59.627 34.8591H54.4507L53.0321 39.3438H50.3853L55.5137 24.0757H58.6813L63.8349 39.3438V39.3438ZM59.178 32.9775L57.8312 28.9907C57.6888 28.5834 57.4218 27.6243 57.028 26.1144H56.9801C56.8233 26.7638 56.5707 27.7229 56.2235 28.9907L54.9007 32.9775H59.178V32.9775Z" fill="white"/>
<path fill-rule="evenodd" clip-rule="evenodd" d="M77.0235 33.7037C77.0235 35.5761 76.4956 37.0561 75.4397 38.1426C74.494 39.1098 73.3196 39.5928 71.9178 39.5928C70.4047 39.5928 69.3177 39.0719 68.6557 38.0302H68.6078V43.8297H66.0555V31.9587C66.0555 30.7816 66.0232 29.5735 65.9609 28.3344H68.2055L68.348 30.0794H68.3959C69.247 28.7646 70.5387 28.1084 72.2722 28.1084C73.6273 28.1084 74.7586 28.6212 75.6636 29.6481C76.571 30.676 77.0235 32.0275 77.0235 33.7037V33.7037ZM74.4233 33.7932C74.4233 32.7216 74.1719 31.8382 73.6668 31.143C73.1149 30.4179 72.3739 30.0553 71.4449 30.0553C70.8152 30.0553 70.243 30.2573 69.7318 30.6554C69.2195 31.0569 68.8843 31.5812 68.7274 32.2306C68.6484 32.5335 68.6089 32.7813 68.6089 32.9763V34.812C68.6089 35.6128 68.8651 36.2886 69.3775 36.8404C69.8898 37.3923 70.5554 37.6676 71.3743 37.6676C72.3356 37.6676 73.0838 37.312 73.6189 36.6029C74.1552 35.8928 74.4233 34.9566 74.4233 33.7932V33.7932Z" fill="white"/>
<path fill-rule="evenodd" clip-rule="evenodd" d="M90.2362 33.7037C90.2362 35.5761 89.7083 37.0561 88.6512 38.1426C87.7067 39.1098 86.5323 39.5928 85.1305 39.5928C83.6173 39.5928 82.5303 39.0719 81.8695 38.0302H81.8216V43.8297H79.2694V31.9587C79.2694 30.7816 79.2371 29.5735 79.1748 28.3344H81.4194L81.5619 30.0794H81.6098C82.4597 28.7646 83.7514 28.1084 85.486 28.1084C86.84 28.1084 87.9713 28.6212 88.8787 29.6481C89.7825 30.676 90.2362 32.0275 90.2362 33.7037V33.7037ZM87.636 33.7932C87.636 32.7216 87.3834 31.8382 86.8782 31.143C86.3264 30.4179 85.5877 30.0553 84.6576 30.0553C84.0267 30.0553 83.4557 30.2573 82.9433 30.6554C82.4309 31.0569 82.0969 31.5812 81.9401 32.2306C81.8623 32.5335 81.8216 32.7813 81.8216 32.9763V34.812C81.8216 35.6128 82.0778 36.2886 82.5877 36.8404C83.1001 37.3911 83.7657 37.6676 84.5869 37.6676C85.5482 37.6676 86.2964 37.312 86.8315 36.6029C87.3679 35.8928 87.636 34.9566 87.636 33.7932V33.7932Z" fill="white"/>
<path fill-rule="evenodd" clip-rule="evenodd" d="M105.009 35.0622C105.009 36.361 104.538 37.4176 103.594 38.2334C102.556 39.1248 101.111 39.57 99.2544 39.57C97.5401 39.57 96.1658 39.2533 95.1255 38.6188L95.7169 36.5801C96.8374 37.2295 98.0668 37.5553 99.4064 37.5553C100.368 37.5553 101.116 37.3465 101.653 36.9312C102.189 36.5159 102.455 35.9583 102.455 35.263C102.455 34.6435 102.235 34.1215 101.793 33.6981C101.354 33.2748 100.62 32.8812 99.5955 32.5175C96.8062 31.5206 95.4128 30.06 95.4128 28.1395C95.4128 26.8843 95.9012 25.8552 96.8793 25.0544C97.8537 24.2525 99.1538 23.8521 100.779 23.8521C102.229 23.8521 103.434 24.0941 104.395 24.5771L103.757 26.5711C102.859 26.103 101.844 25.869 100.708 25.869C99.8098 25.869 99.1083 26.0812 98.6055 26.5034C98.1805 26.8809 97.9675 27.341 97.9675 27.8859C97.9675 28.4894 98.2105 28.9885 98.6989 29.3809C99.1239 29.7434 99.896 30.1358 101.017 30.5591C102.387 31.088 103.394 31.7064 104.042 32.4154C104.687 33.1222 105.009 34.0067 105.009 35.0622V35.0622Z" fill="white"/>
<path fill-rule="evenodd" clip-rule="evenodd" d="M113.447 30.1702H110.634V35.5154C110.634 36.8749 111.13 37.5541 112.123 37.5541C112.579 37.5541 112.958 37.5163 113.257 37.4405L113.327 39.298C112.825 39.4781 112.163 39.5688 111.343 39.5688C110.335 39.5688 109.547 39.2739 108.978 38.6854C108.412 38.0956 108.127 37.1067 108.127 35.7173V30.1679H106.451V28.3322H108.127V26.3164L110.634 25.5913V28.3322H113.447V30.1702V30.1702Z" fill="white"/>
<path fill-rule="evenodd" clip-rule="evenodd" d="M126.14 33.7483C126.14 35.4406 125.635 36.8299 124.627 37.9164C123.57 39.035 122.167 39.5926 120.418 39.5926C118.733 39.5926 117.391 39.0568 116.39 37.9853C115.389 36.9137 114.889 35.561 114.889 33.9307C114.889 32.2247 115.403 30.8273 116.437 29.7408C117.467 28.6532 118.858 28.1094 120.607 28.1094C122.293 28.1094 123.649 28.6452 124.673 29.7179C125.652 30.7585 126.14 32.102 126.14 33.7483V33.7483ZM123.492 33.8275C123.492 32.8121 123.266 31.9413 122.808 31.2151C122.273 30.3363 121.508 29.898 120.516 29.898C119.49 29.898 118.711 30.3374 118.176 31.2151C117.717 31.9425 117.491 32.827 117.491 33.8734C117.491 34.8887 117.717 35.7595 118.176 36.4846C118.728 37.3634 119.499 37.8017 120.494 37.8017C121.468 37.8017 122.233 37.3543 122.785 36.4617C123.255 35.7217 123.492 34.8417 123.492 33.8275V33.8275Z" fill="white"/>
<path fill-rule="evenodd" clip-rule="evenodd" d="M134.437 30.4856C134.184 30.4408 133.915 30.4179 133.632 30.4179C132.734 30.4179 132.04 30.7426 131.551 31.3931C131.127 31.9667 130.913 32.6918 130.913 33.5672V39.3438H128.362L128.386 31.8015C128.386 30.5326 128.354 29.3773 128.291 28.3356H130.514L130.607 30.442H130.678C130.947 29.718 131.372 29.1352 131.954 28.6981C132.522 28.3046 133.136 28.1084 133.798 28.1084C134.034 28.1084 134.247 28.1245 134.437 28.1531V30.4856V30.4856Z" fill="white"/>
<path fill-rule="evenodd" clip-rule="evenodd" d="M145.851 33.3184C145.851 33.7567 145.821 34.1261 145.758 34.4278H138.101C138.131 35.5155 138.501 36.3472 139.212 36.9209C139.857 37.4337 140.692 37.6907 141.716 37.6907C142.85 37.6907 143.884 37.5175 144.814 37.1699L145.214 38.8678C144.127 39.3222 142.844 39.5482 141.363 39.5482C139.582 39.5482 138.184 39.0457 137.166 38.0418C136.151 37.0379 135.642 35.6898 135.642 33.9987C135.642 32.3386 136.115 30.9561 137.062 29.8536C138.053 28.6765 139.393 28.0879 141.078 28.0879C142.734 28.0879 143.987 28.6765 144.838 29.8536C145.512 30.7886 145.851 31.9451 145.851 33.3184V33.3184ZM143.417 32.684C143.434 31.9589 143.268 31.3325 142.922 30.8036C142.48 30.1232 141.801 29.7836 140.888 29.7836C140.053 29.7836 139.375 30.1152 138.856 30.7806C138.431 31.3095 138.179 31.944 138.101 32.6828H143.417V32.684Z" fill="white"/>
<path fill-rule="evenodd" clip-rule="evenodd" d="M58.3342 14.6826C58.3342 16.033 57.9116 17.0495 57.0677 17.7321C56.2859 18.362 55.175 18.6775 53.7361 18.6775C53.0226 18.6775 52.412 18.6476 51.9009 18.588V11.2097C52.5677 11.1065 53.2859 11.0537 54.0617 11.0537C55.4324 11.0537 56.4655 11.3394 57.1622 11.9107C57.9428 12.5567 58.3342 13.4802 58.3342 14.6826V14.6826ZM57.0114 14.7159C57.0114 13.8405 56.7696 13.1693 56.286 12.7012C55.8024 12.2343 55.0961 12.0002 54.1659 12.0002C53.7708 12.0002 53.4344 12.0255 53.1555 12.0782V17.6873C53.3099 17.7103 53.5925 17.7206 54.0031 17.7206C54.9632 17.7206 55.7042 17.4648 56.2261 16.9531C56.7481 16.4414 57.0114 15.6956 57.0114 14.7159V14.7159Z" fill="white"/>
<path fill-rule="evenodd" clip-rule="evenodd" d="M65.3484 15.8623C65.3484 16.6941 65.1006 17.3756 64.605 17.9103C64.0854 18.4598 63.3971 18.734 62.5376 18.734C61.7091 18.734 61.0495 18.4713 60.5575 17.9435C60.0667 17.4169 59.8213 16.7526 59.8213 15.9518C59.8213 15.1143 60.0739 14.4271 60.5815 13.8936C61.089 13.3601 61.7714 13.0928 62.6309 13.0928C63.4593 13.0928 64.1249 13.3555 64.6289 13.8821C65.1078 14.3938 65.3484 15.0546 65.3484 15.8623V15.8623ZM64.0471 15.9013C64.0471 15.4023 63.9346 14.9743 63.7107 14.6175C63.4473 14.1861 63.0726 13.9705 62.5854 13.9705C62.0814 13.9705 61.6983 14.1861 61.435 14.6175C61.2099 14.9743 61.0986 15.4092 61.0986 15.9231C61.0986 16.4222 61.2111 16.8502 61.435 17.207C61.7067 17.6383 62.085 17.854 62.5734 17.854C63.0523 17.854 63.4282 17.6349 63.6987 17.1955C63.931 16.8318 64.0471 16.4004 64.0471 15.9013V15.9013Z" fill="white"/>
<path fill-rule="evenodd" clip-rule="evenodd" d="M74.7525 13.2026L72.9868 18.611H71.8375L71.1061 16.2625C70.9205 15.6762 70.7697 15.0934 70.6524 14.5151H70.6296C70.5207 15.1094 70.3698 15.6911 70.1759 16.2625L69.399 18.611H68.2366L66.5762 13.2026H67.8655L68.5035 15.7737C68.658 16.3818 68.7849 16.9612 68.8866 17.5096H68.9094C69.0027 17.0575 69.1572 16.4816 69.375 15.7852L70.1759 13.2038H71.1983L71.9656 15.7301C72.1512 16.3462 72.302 16.9394 72.4181 17.5107H72.4528C72.5378 16.9543 72.6659 16.3611 72.8359 15.7301L73.5207 13.2038H74.7525V13.2026Z" fill="white"/>
<path fill-rule="evenodd" clip-rule="evenodd" d="M81.2566 18.6113H80.002V15.5136C80.002 14.559 79.6237 14.0818 78.8647 14.0818C78.4924 14.0818 78.1919 14.2126 77.9585 14.4753C77.7275 14.738 77.6101 15.0478 77.6101 15.4023V18.6101H76.3555V14.7483C76.3555 14.2734 76.34 13.7582 76.3101 13.2006H77.4126L77.4713 14.0462H77.506C77.652 13.7835 77.8699 13.5666 78.156 13.3934C78.496 13.1915 78.8767 13.0894 79.2933 13.0894C79.82 13.0894 80.2582 13.2523 80.6065 13.5792C81.0399 13.9797 81.2566 14.5774 81.2566 15.3713V18.6113V18.6113Z" fill="white"/>
<path fill-rule="evenodd" clip-rule="evenodd" d="M84.7163 18.6111H83.4629V10.7212H84.7163V18.6111V18.6111Z" fill="white"/>
<path fill-rule="evenodd" clip-rule="evenodd" d="M92.1028 15.8623C92.1028 16.6941 91.855 17.3756 91.3594 17.9103C90.8398 18.4598 90.1503 18.734 89.292 18.734C88.4623 18.734 87.8027 18.4713 87.3119 17.9435C86.8211 17.4169 86.5757 16.7526 86.5757 15.9518C86.5757 15.1143 86.8283 14.4271 87.3359 13.8936C87.8434 13.3601 88.5258 13.0928 89.3841 13.0928C90.2137 13.0928 90.8781 13.3555 91.3833 13.8821C91.8622 14.3938 92.1028 15.0546 92.1028 15.8623V15.8623ZM90.8002 15.9013C90.8002 15.4023 90.6877 14.9743 90.4639 14.6175C90.2017 14.1861 89.8258 13.9705 89.3398 13.9705C88.8346 13.9705 88.4515 14.1861 88.1893 14.6175C87.9643 14.9743 87.8529 15.4092 87.8529 15.9231C87.8529 16.4222 87.9655 16.8502 88.1893 17.207C88.4611 17.6383 88.8394 17.854 89.3278 17.854C89.8066 17.854 90.1813 17.6349 90.4519 17.1955C90.6853 16.8318 90.8002 16.4004 90.8002 15.9013V15.9013Z" fill="white"/>
<path fill-rule="evenodd" clip-rule="evenodd" d="M98.1744 18.6112H97.0479L96.9545 17.9883H96.9198C96.5343 18.485 95.9848 18.734 95.2713 18.734C94.7386 18.734 94.3077 18.5699 93.9832 18.2441C93.6887 17.9481 93.5415 17.5798 93.5415 17.1427C93.5415 16.4819 93.8288 15.9782 94.407 15.6294C94.984 15.2807 95.7957 15.1097 96.8408 15.1177V15.0168C96.8408 14.3043 96.4505 13.9487 95.6688 13.9487C95.1121 13.9487 94.6213 14.0829 94.1975 14.3491L93.9425 13.5597C94.4669 13.2488 95.1145 13.0928 95.8783 13.0928C97.3531 13.0928 98.093 13.8385 98.093 15.33V17.3217C98.093 17.8621 98.1205 18.2923 98.1744 18.6112V18.6112ZM96.8719 16.7526V15.9186C95.488 15.8956 94.796 16.2593 94.796 17.0085C94.796 17.2907 94.8751 17.5018 95.0367 17.6429C95.1983 17.7841 95.4042 17.854 95.6496 17.854C95.9249 17.854 96.1823 17.7703 96.417 17.6039C96.6528 17.4364 96.7976 17.2242 96.8515 16.9637C96.8647 16.9052 96.8719 16.8341 96.8719 16.7526V16.7526Z" fill="white"/>
<path fill-rule="evenodd" clip-rule="evenodd" d="M105.303 18.6111H104.19L104.131 17.7426H104.096C103.741 18.4035 103.135 18.7339 102.284 18.7339C101.604 18.7339 101.038 18.478 100.589 17.9663C100.14 17.4546 99.916 16.7904 99.916 15.9746C99.916 15.0993 100.159 14.3902 100.647 13.8487C101.12 13.3439 101.7 13.0915 102.389 13.0915C103.147 13.0915 103.677 13.3359 103.979 13.8258H104.003V10.7212H105.259V17.1541C105.259 17.6807 105.273 18.166 105.303 18.6111V18.6111ZM104.003 16.3303V15.4285C104.003 15.2725 103.991 15.1463 103.968 15.0499C103.898 14.7608 103.746 14.5176 103.515 14.3214C103.281 14.1252 103 14.0266 102.675 14.0266C102.207 14.0266 101.841 14.2044 101.572 14.5612C101.305 14.918 101.169 15.3735 101.169 15.9299C101.169 16.4646 101.298 16.8982 101.555 17.2321C101.827 17.5877 102.193 17.7656 102.652 17.7656C103.063 17.7656 103.393 17.6176 103.643 17.3204C103.885 17.0462 104.003 16.7158 104.003 16.3303V16.3303Z" fill="white"/>
<path fill-rule="evenodd" clip-rule="evenodd" d="M116.033 15.8623C116.033 16.6941 115.785 17.3756 115.29 17.9103C114.77 18.4598 114.083 18.734 113.222 18.734C112.395 18.734 111.735 18.4713 111.242 17.9435C110.751 17.4169 110.506 16.7526 110.506 15.9518C110.506 15.1143 110.758 14.4271 111.266 13.8936C111.774 13.3601 112.456 13.0928 113.317 13.0928C114.144 13.0928 114.811 13.3555 115.313 13.8821C115.792 14.3938 116.033 15.0546 116.033 15.8623V15.8623ZM114.733 15.9013C114.733 15.4023 114.62 14.9743 114.397 14.6175C114.132 14.1861 113.759 13.9705 113.27 13.9705C112.767 13.9705 112.384 14.1861 112.12 14.6175C111.895 14.9743 111.783 15.4092 111.783 15.9231C111.783 16.4222 111.896 16.8502 112.12 17.207C112.391 17.6383 112.77 17.854 113.258 17.854C113.737 17.854 114.114 17.6349 114.385 17.1955C114.616 16.8318 114.733 16.4004 114.733 15.9013V15.9013Z" fill="white"/>
<path fill-rule="evenodd" clip-rule="evenodd" d="M122.779 18.6113H121.525V15.5136C121.525 14.559 121.147 14.0818 120.387 14.0818C120.015 14.0818 119.714 14.2126 119.482 14.4753C119.25 14.738 119.134 15.0478 119.134 15.4023V18.6101H117.878V14.7483C117.878 14.2734 117.863 13.7582 117.833 13.2006H118.935L118.994 14.0462H119.028C119.175 13.7835 119.393 13.5666 119.678 13.3934C120.019 13.1915 120.399 13.0894 120.817 13.0894C121.342 13.0894 121.78 13.2523 122.129 13.5792C122.563 13.9797 122.779 14.5774 122.779 15.3713V18.6113V18.6113Z" fill="white"/>
<path fill-rule="evenodd" clip-rule="evenodd" d="M131.222 14.1035H129.841V16.7308C129.841 17.3985 130.086 17.7324 130.572 17.7324C130.797 17.7324 130.984 17.714 131.131 17.6762L131.163 18.5883C130.916 18.6778 130.59 18.7225 130.189 18.7225C129.693 18.7225 129.308 18.5779 129.029 18.2888C128.749 17.9997 128.61 17.5133 128.61 16.8306V14.1035H127.785V13.2029H128.61V12.2116L129.839 11.856V13.2017H131.221V14.1035H131.222Z" fill="white"/>
<path fill-rule="evenodd" clip-rule="evenodd" d="M137.864 18.6111H136.608V15.5364C136.608 14.5669 136.23 14.0816 135.472 14.0816C134.89 14.0816 134.493 14.3627 134.275 14.9249C134.238 15.043 134.216 15.1876 134.216 15.3574V18.61H132.963V10.7212H134.216V13.9806H134.24C134.635 13.3875 135.202 13.0915 135.935 13.0915C136.455 13.0915 136.885 13.2544 137.226 13.5814C137.651 13.9887 137.864 14.5944 137.864 15.3953V18.6111V18.6111Z" fill="white"/>
<path fill-rule="evenodd" clip-rule="evenodd" d="M144.715 15.6513C144.715 15.867 144.698 16.0483 144.668 16.1963H140.906C140.922 16.7309 141.102 17.1382 141.45 17.4204C141.769 17.6728 142.179 17.799 142.682 17.799C143.239 17.799 143.746 17.7141 144.204 17.5432L144.4 18.3784C143.865 18.601 143.235 18.7123 142.506 18.7123C141.632 18.7123 140.944 18.4656 140.446 17.9723C139.946 17.4789 139.698 16.817 139.698 15.9863C139.698 15.1706 139.929 14.4914 140.394 13.9499C140.881 13.3716 141.538 13.0825 142.367 13.0825C143.179 13.0825 143.796 13.3716 144.212 13.9499C144.548 14.4088 144.715 14.9767 144.715 15.6513V15.6513ZM143.518 15.3404C143.527 14.9836 143.445 14.6761 143.275 14.4168C143.057 14.083 142.725 13.9155 142.276 13.9155C141.867 13.9155 141.533 14.0784 141.278 14.4054C141.07 14.6658 140.946 14.9767 140.906 15.3404H143.518V15.3404Z" fill="white"/>
<path fill-rule="evenodd" clip-rule="evenodd" d="M33.1868 26.0024C33.1547 22.5064 36.1076 20.8056 36.2426 20.7264C34.5703 18.3368 31.9783 18.0103 31.0674 17.9843C28.8904 17.7598 26.7787 19.261 25.6697 19.261C24.5386 19.261 22.8309 18.006 20.9904 18.0429C18.6219 18.0787 16.4062 19.4226 15.191 21.5096C12.6831 25.7649 14.5535 32.0182 16.9563 35.4578C18.1582 37.1423 19.5627 39.0232 21.401 38.957C23.1995 38.8844 23.8713 37.8333 26.0416 37.8333C28.192 37.8333 28.8229 38.957 30.6977 38.9147C32.6279 38.8844 33.8431 37.2226 35.003 35.5229C36.392 33.5921 36.9498 31.6906 36.9719 31.593C36.9266 31.5778 33.2234 30.1926 33.1868 26.0024V26.0024Z" fill="white"/>
<path fill-rule="evenodd" clip-rule="evenodd" d="M28.8277 13.7386C29.795 12.553 30.4569 10.94 30.2731 9.30322C28.8731 9.36397 27.1222 10.2523 26.114 11.4119C25.2219 12.4337 24.425 14.1085 24.6309 15.6834C26.2036 15.7984 27.8184 14.9057 28.8277 13.7386V13.7386Z" fill="white"/>
</svg>
