<svg width="55" height="42" viewBox="0 0 55 42" fill="none" xmlns="http://www.w3.org/2000/svg">
<path d="M55.0002 36.3207C54.9006 36.6785 54.8132 37.0403 54.6989 37.3928C53.8998 39.8543 51.7557 41.5035 49.1422 41.6716C48.9821 41.6824 48.8207 41.6864 48.6592 41.6864C39.8917 41.6877 31.1242 41.7025 22.3553 41.6783C19.2104 41.6689 16.8659 40.2431 15.467 37.3981C14.1514 34.7227 14.6814 31.489 16.7287 29.248C18.7302 27.0582 21.9343 26.2834 24.6932 27.3218C24.8573 27.3837 25.0227 27.4442 25.1963 27.5074C25.7478 21.0172 31.4201 16.4936 37.6239 17.0437C42.7205 17.4957 48.3889 22.1915 47.836 29.4094C48.4534 29.4094 49.0789 29.3382 49.6829 29.4216C52.3946 29.7955 54.4231 31.7796 54.9033 34.4658C54.9181 34.5492 54.9665 34.6258 54.9988 34.7065C55.0002 35.2446 55.0002 35.7826 55.0002 36.3207Z" fill="white"/>
<path d="M16.4483 0.333252C20.068 0.356119 23.985 0.76235 27.7527 2.11958C29.0535 2.58768 30.3017 3.16743 31.3455 4.10633C32.4902 5.13669 32.4997 6.00161 31.355 7.03332C29.991 8.26142 28.319 8.90304 26.6 9.41822C22.3695 10.6867 18.0342 10.9839 13.6464 10.7472C10.4719 10.5764 7.35392 10.0975 4.35833 8.98778C3.09526 8.51968 1.88196 7.95204 0.873114 7.02928C-0.258135 5.99488 -0.25948 5.12593 0.898672 4.10229C2.31374 2.84998 4.04357 2.2097 5.81375 1.68107C9.1658 0.678951 12.6107 0.345358 16.4483 0.333252Z" fill="white"/>
<path d="M0.01179 10.4257C2.03217 11.6807 4.12921 12.4326 6.30832 12.9519C10.4096 13.9298 14.5701 14.2055 18.7749 13.9661C22.2736 13.767 25.709 13.2424 29.0006 11.9982C30.0807 11.5892 31.107 11.0431 32.1925 10.5441C32.202 10.6477 32.2248 10.7781 32.2262 10.9086C32.2289 11.9309 32.2114 12.9532 32.2369 13.9742C32.2463 14.3252 32.1186 14.4732 31.8011 14.5822C28.9454 15.5668 26.6062 17.2764 24.832 19.7232C24.2684 20.5007 23.8178 21.3643 23.3591 22.2117C23.199 22.5076 23.039 22.6784 22.6973 22.7296C19.0883 23.277 15.4686 23.3685 11.8368 23.0134C8.95956 22.7323 6.13076 22.2117 3.48087 21.0172C2.54735 20.5962 1.68513 19.9936 0.847115 19.395C0.239119 18.9605 -0.009733 18.3068 0.00237312 17.5186C0.0360012 15.3677 0.0144828 13.2155 0.0144828 11.0647C0.0117926 10.8898 0.01179 10.7149 0.01179 10.4257Z" fill="white"/>
<path d="M0.0113407 22.8735C4.6574 25.5678 9.69623 26.2134 14.9234 26.4744C12.4336 28.9602 11.3225 31.8845 11.6009 35.4248C10.6916 35.2903 9.81595 35.1854 8.94969 35.0253C6.51636 34.5788 4.13415 33.9694 1.98867 32.6714C1.59321 32.4319 1.22599 32.1414 0.86953 31.8455C0.254809 31.3357 -0.0142189 30.6927 0.000577434 29.8668C0.039586 27.7361 0.0140336 25.6027 0.0140336 23.4721C0.0113434 23.2986 0.0113407 23.1237 0.0113407 22.8735Z" fill="white"/>
</svg>
