<svg width="51" height="60" viewBox="0 0 51 60" fill="none" xmlns="http://www.w3.org/2000/svg">
<path d="M0.666992 0H50.6628V49.9958C50.6628 55.5187 46.1857 59.9958 40.6628 59.9958H10.667C5.14414 59.9958 0.666992 55.5187 0.666992 49.9958V0Z" fill="#45CC63"/>
<path d="M21.3164 41.3153L29.9843 32.6475" stroke="white" stroke-width="2" stroke-linecap="round" stroke-linejoin="round"/>
<path d="M22.0386 34.0919C22.4375 34.0919 22.7609 33.7686 22.7609 33.3697C22.7609 32.9708 22.4375 32.6475 22.0386 32.6475C21.6398 32.6475 21.3164 32.9708 21.3164 33.3697C21.3164 33.7686 21.6398 34.0919 22.0386 34.0919Z" fill="white" stroke="white" stroke-width="2" stroke-linecap="round" stroke-linejoin="round"/>
<path d="M29.2623 41.3149C29.6611 41.3149 29.9845 40.9916 29.9845 40.5927C29.9845 40.1938 29.6611 39.8705 29.2623 39.8705C28.8634 39.8705 28.54 40.1938 28.54 40.5927C28.54 40.9916 28.8634 41.3149 29.2623 41.3149Z" fill="white" stroke="white" stroke-width="2" stroke-linecap="round" stroke-linejoin="round"/>
<path d="M15.5381 30.0471C15.5381 29.2042 15.8729 28.3958 16.4689 27.7997C17.065 27.2037 17.8734 26.8688 18.7163 26.8688H20.1609C21.0001 26.8684 21.8051 26.536 22.4001 25.9443L23.4114 24.933C23.7067 24.636 24.0579 24.4003 24.4447 24.2395C24.8314 24.0786 25.2462 23.9958 25.665 23.9958C26.0839 23.9958 26.4987 24.0786 26.8854 24.2395C27.2722 24.4003 27.6233 24.636 27.9187 24.933L28.9299 25.9443C29.525 26.536 30.3299 26.8684 31.1691 26.8688H32.6138C33.4567 26.8688 34.2651 27.2037 34.8611 27.7997C35.4572 28.3958 35.792 29.2042 35.792 30.0471V31.4917C35.7925 32.3309 36.1249 33.1359 36.7166 33.7309L37.7278 34.7422C38.0249 35.0375 38.2606 35.3887 38.4214 35.7754C38.5822 36.1622 38.665 36.5769 38.665 36.9958C38.665 37.4147 38.5822 37.8294 38.4214 38.2162C38.2606 38.603 38.0249 38.9541 37.7278 39.2495L36.7166 40.2607C36.1249 40.8558 35.7925 41.6607 35.792 42.4999V43.9446C35.792 44.7875 35.4572 45.5959 34.8611 46.1919C34.2651 46.7879 33.4567 47.1228 32.6138 47.1228H31.1691C30.3299 47.1233 29.525 47.4556 28.9299 48.0474L27.9187 49.0586C27.6233 49.3556 27.2722 49.5913 26.8854 49.7522C26.4987 49.913 26.0839 49.9958 25.665 49.9958C25.2462 49.9958 24.8314 49.913 24.4447 49.7522C24.0579 49.5913 23.7067 49.3556 23.4114 49.0586L22.4001 48.0474C21.8051 47.4556 21.0001 47.1233 20.1609 47.1228H18.7163C17.8734 47.1228 17.065 46.7879 16.4689 46.1919C15.8729 45.5959 15.5381 44.7875 15.5381 43.9446V42.4999C15.5376 41.6607 15.2052 40.8558 14.6135 40.2607L13.6022 39.2495C13.3052 38.9541 13.0695 38.603 12.9087 38.2162C12.7478 37.8294 12.665 37.4147 12.665 36.9958C12.665 36.5769 12.7478 36.1622 12.9087 35.7754C13.0695 35.3887 13.3052 35.0375 13.6022 34.7422L14.6135 33.7309C15.2052 33.1359 15.5376 32.3309 15.5381 31.4917V30.0471" stroke="white" stroke-width="2" stroke-linecap="round" stroke-linejoin="round"/>
</svg>
