<svg width="55" height="56" viewBox="0 0 55 56" fill="none" xmlns="http://www.w3.org/2000/svg">
<path d="M54.9967 28.5852C54.2348 32.1313 51.6654 34.1436 48.7552 35.8121C47.459 36.5555 46.0468 37.0968 44.6934 37.7413C44.4241 37.8702 44.2437 37.8473 44.0546 37.5967C43.8842 37.3704 43.6851 37.1326 43.443 37.0023C42.9275 36.7245 42.8845 36.3435 42.9704 35.8164C43.9615 29.6751 43.761 23.5552 42.5737 17.4597C42.5608 17.3924 42.5637 17.3222 42.5508 17.1289C43.7725 17.6029 44.9397 18.0211 46.0798 18.5038C47.9302 19.2872 49.6804 20.2554 51.2615 21.5071C53.1034 22.9651 54.5256 24.7067 54.9996 27.0813C54.9968 27.5826 54.9967 28.0839 54.9967 28.5852Z" fill="white"/>
<path d="M0 27.0813C0.794881 23.4034 3.50894 21.3969 6.52089 19.6954C7.72825 19.0137 9.04302 18.521 10.3034 17.9295C10.5712 17.8034 10.7517 17.8135 10.9421 18.0684C11.1111 18.2947 11.3116 18.5339 11.5537 18.6613C12.0793 18.9363 12.1094 19.3245 12.0249 19.8472C11.0338 25.9886 11.2343 32.107 12.423 38.2025C12.4359 38.2698 12.4345 38.34 12.4474 38.5305C11.2429 38.065 10.0671 37.7027 8.9757 37.167C7.42461 36.4036 5.87209 35.6102 4.43844 34.6535C2.24428 33.1897 0.545675 31.2892 0 28.5852C0 28.0839 0 27.5826 0 27.0813Z" fill="white"/>
<path d="M28.2496 0.334686C31.432 1.00067 33.3855 3.20055 35.0182 5.78284C36.3702 7.92114 37.3356 10.237 38.1204 12.7105C37.2869 12.5801 36.5163 12.4555 35.7444 12.3395C30.2575 11.516 24.7707 11.5074 19.2839 12.3395C18.9173 12.3954 18.6222 12.3897 18.4332 12.0073C18.3644 11.8669 18.2541 11.7194 18.1224 11.6435C17.3862 11.2152 17.5022 10.6552 17.8288 10.0337C18.6566 8.45392 19.3741 6.80688 20.3194 5.30018C21.8361 2.8826 23.7911 0.936215 26.7457 0.333252C27.247 0.334684 27.7483 0.334686 28.2496 0.334686Z" fill="white"/>
<path d="M26.7473 55.3318C23.2054 54.5685 21.2118 51.9933 19.5103 49.1003C18.429 47.2613 17.6312 45.2906 16.971 43.264C16.9452 43.1823 16.9309 43.0978 16.8965 42.9532C17.7272 43.085 18.5163 43.2181 19.3069 43.3356C23.8943 44.0145 28.4946 44.1405 33.1077 43.6521C34.0143 43.5562 34.9181 43.4401 35.8204 43.3098C36.1412 43.264 36.3503 43.3313 36.5351 43.6149C36.7083 43.8798 36.9303 44.1348 37.1838 44.3224C37.4832 44.5444 37.5247 44.7392 37.3858 45.0843C36.6554 46.9147 35.8247 48.6921 34.7262 50.3334C33.1264 52.7223 31.2201 54.7188 28.2482 55.3318C27.7498 55.3318 27.2486 55.3318 26.7473 55.3318Z" fill="white"/>
<path d="M14.4746 27.7917C14.7023 25.2639 14.9315 22.7374 15.1549 20.2096C15.1836 19.8873 15.2981 19.7341 15.6533 19.6481C17.5983 19.1726 18.8314 17.9366 19.3141 15.9945C19.4014 15.6451 19.5447 15.5334 19.8683 15.4875C26.1658 14.5938 32.4231 14.8015 38.6461 16.1249C39.0028 16.2008 39.136 16.3683 39.209 16.7064C40.3519 22.0471 40.6598 27.438 40.1543 32.8732C40.0726 33.7454 39.9423 34.6119 39.8435 35.4827C39.8105 35.7792 39.7117 35.9324 39.3751 36.0141C37.4073 36.4896 36.1612 37.7284 35.6829 39.6977C35.6027 40.0257 35.4638 40.1331 35.1616 40.1761C28.8469 41.0741 22.5709 40.8693 16.3322 39.533C16.0042 39.4628 15.8667 39.311 15.798 38.9874C15.0217 35.3567 14.615 31.5857 14.6121 27.8046C14.5648 27.8003 14.519 27.796 14.4746 27.7917Z" fill="white"/>
<path d="M1.35156 36.3879C4.88198 39.1277 8.81342 40.7175 12.8838 42.0165C13.2089 42.1196 13.3693 42.2815 13.4638 42.6195C14.4363 46.0954 15.7267 49.4354 17.7376 52.4617C18.034 52.9071 18.3548 53.3339 18.6341 53.8137C14.5466 52.4788 11.0047 50.2575 7.97843 47.2126C4.95502 44.1691 2.76803 40.6072 1.35156 36.3879Z" fill="white"/>
<path d="M36.3613 1.8557C39.8631 2.98142 42.9753 4.79031 45.7194 7.22508C49.3959 10.4877 52.014 14.4549 53.5952 19.1239C53.5379 19.1354 53.5007 19.154 53.4878 19.1426C50.3355 16.6204 46.6933 15.0708 42.8779 13.9107C41.9685 13.6343 41.5531 13.2132 41.2939 12.2923C40.2398 8.55418 38.7202 5.01803 36.3613 1.8557Z" fill="white"/>
<path d="M18.6647 1.78839C17.9558 2.92414 17.211 3.9539 16.6381 5.07246C15.8662 6.58059 15.2145 8.1503 14.5385 9.70569C14.4168 9.98497 14.2936 10.1067 13.9828 10.1583C11.7013 10.5335 10.2132 12.0373 9.8036 14.3117C9.76922 14.5022 9.6303 14.7643 9.47419 14.8273C6.62694 15.9602 3.8914 17.295 1.35352 19.2786C2.84016 14.8287 5.20331 11.0935 8.49168 7.94692C11.412 5.15553 14.7848 3.1046 18.6647 1.78839Z" fill="white"/>
<path d="M53.6414 36.3864C52.1548 40.8277 49.8031 44.5472 46.5376 47.6838C43.6116 50.4952 40.223 52.5519 36.3145 53.7793C36.5279 53.4842 36.7456 53.1907 36.9561 52.8913C38.4456 50.7702 39.5498 48.4529 40.4321 46.0267C40.5467 45.713 40.6841 45.5569 41.0479 45.4968C43.2965 45.1273 44.7574 43.6392 45.1856 41.372C45.2185 41.1958 45.3431 40.9509 45.4864 40.8965C48.3651 39.7865 51.1093 38.4345 53.6414 36.3864Z" fill="white"/>
<path d="M14.6224 13.3335C15.4932 13.3421 16.2179 14.074 16.2164 14.9433C16.215 15.8356 15.4559 16.576 14.5665 16.5517C13.6972 16.5288 12.9839 15.784 12.9983 14.9147C13.014 14.0453 13.753 13.3249 14.6224 13.3335Z" fill="white"/>
<path d="M40.3805 39.1134C41.2513 39.1091 41.986 39.8324 41.9975 40.7017C42.009 41.5926 41.2599 42.343 40.3691 42.3316C39.4997 42.3201 38.7764 41.5854 38.7793 40.716C38.7807 39.8467 39.5097 39.1177 40.3805 39.1134Z" fill="white"/>
</svg>
