<svg width="198" height="50" viewBox="0 0 198 50" fill="none" xmlns="http://www.w3.org/2000/svg">
<rect width="198" height="50" rx="12" fill="#FFC229"/>
<rect x="14" width="170" height="50" rx="5" fill="#FFC229"/>
<path fill-rule="evenodd" clip-rule="evenodd" d="M28.567 13.1426L40.1159 25.0176L28.6224 36.9962C28.287 36.7772 28.1072 36.3018 28.1042 35.6878C28.0984 34.5108 28.0069 15.8288 28 14.4271C27.9968 13.7548 28.2343 13.3446 28.567 13.1426V13.1426ZM43.9244 21.0486L29.8808 13.1588C29.7308 13.0743 29.5605 13.0229 29.3908 13L40.5937 24.5197L43.9244 21.0486V21.0486ZM44.5486 28.5863L41.0746 25.0143L44.5451 21.3975L49.3244 24.0821C50.5018 24.7431 49.8996 25.5702 49.3244 25.8945L44.5486 28.5863V28.5863ZM29.5745 37C29.6725 36.9621 29.7747 36.9137 29.8808 36.854L43.9272 28.9365L40.5971 25.5123L29.5745 37V37Z" fill="black"/>
<path fill-rule="evenodd" clip-rule="evenodd" d="M78.7727 24.1417H71.7615V26.1972H76.734C76.4882 29.0798 74.0609 30.3091 71.7698 30.3091C68.8385 30.3091 66.2806 28.0303 66.2806 24.8364C66.2806 21.7251 68.719 19.3289 71.7761 19.3289C74.135 19.3289 75.5249 20.8145 75.5249 20.8145L76.9817 19.324C76.9817 19.324 75.1119 17.2675 71.7017 17.2675C67.3594 17.2673 64 20.8885 64 24.7998C64 28.6323 67.1599 32.3694 71.8124 32.3694C75.9042 32.3693 78.8994 29.6 78.8994 25.5044C78.8994 24.6404 78.7725 24.1411 78.7725 24.1411L78.7727 24.1417" fill="black"/>
<path fill-rule="evenodd" clip-rule="evenodd" d="M84.7328 22.6531C81.8557 22.6531 79.794 24.8751 79.794 27.4672C79.794 30.097 81.7936 32.3607 84.7663 32.3607C87.4574 32.3607 89.6621 30.3283 89.6621 27.5236C89.6621 24.3086 87.0975 22.6531 84.7328 22.6531V22.6531ZM84.7612 24.5595C86.1761 24.5595 87.5167 25.6896 87.5167 27.5106C87.5167 29.2929 86.1817 30.4553 84.7547 30.4553C83.1869 30.4553 81.9499 29.2147 81.9499 27.4966C81.9499 25.8151 83.1716 24.5595 84.7612 24.5595V24.5595Z" fill="black"/>
<path fill-rule="evenodd" clip-rule="evenodd" d="M95.5902 22.6531C92.7132 22.6531 90.6513 24.8751 90.6513 27.4672C90.6513 30.097 92.6511 32.3607 95.624 32.3607C98.3149 32.3607 100.52 30.3283 100.52 27.5236C100.52 24.3086 97.9552 22.6531 95.5902 22.6531V22.6531ZM95.6186 24.5595C97.0333 24.5595 98.3741 25.6896 98.3741 27.5106C98.3741 29.2929 97.039 30.4553 95.612 30.4553C94.0443 30.4553 92.8074 29.2147 92.8074 27.4966C92.8074 25.8151 94.0288 24.5595 95.6186 24.5595V24.5595Z" fill="black"/>
<path fill-rule="evenodd" clip-rule="evenodd" d="M106.225 22.6581C103.585 22.6581 101.509 24.9433 101.509 27.508C101.509 30.4296 103.915 32.3671 106.18 32.3671C107.58 32.3671 108.324 31.8179 108.874 31.1876V32.1448C108.874 33.8194 107.845 34.8221 106.291 34.8221C104.791 34.8221 104.038 33.7198 103.777 33.0941L101.888 33.874C102.558 35.2734 103.907 36.7326 106.307 36.7326C108.933 36.7326 110.934 35.0988 110.934 31.6719V22.9499H108.874V23.7722C108.241 23.0979 107.375 22.6583 106.225 22.6583V22.6581V22.6581ZM106.416 24.5609C107.711 24.5609 109.04 25.6532 109.04 27.5183C109.04 29.4142 107.714 30.4592 106.388 30.4592C104.98 30.4592 103.67 29.3297 103.67 27.5364C103.67 25.673 105.03 24.5609 106.416 24.5609V24.5609Z" fill="black"/>
<path fill-rule="evenodd" clip-rule="evenodd" d="M120.525 22.6465C118.034 22.6465 115.943 24.6047 115.943 27.4939C115.943 30.5511 118.274 32.3644 120.764 32.3644C122.843 32.3644 124.118 31.241 124.88 30.2342L123.182 29.1178C122.741 29.7935 122.004 30.4541 120.775 30.4541C119.394 30.454 118.759 29.7067 118.365 28.983L124.952 26.2823L124.61 25.4909C123.974 23.941 122.49 22.6468 120.525 22.6468L120.525 22.6465V22.6465ZM120.611 24.5133C121.509 24.5133 122.154 24.9848 122.429 25.55L118.03 27.3666C117.84 25.9603 119.189 24.5133 120.611 24.5133H120.611V24.5133Z" fill="black"/>
<path fill-rule="evenodd" clip-rule="evenodd" d="M112.586 32.0761H114.749V17.7694H112.586V32.0761Z" fill="black"/>
<path fill-rule="evenodd" clip-rule="evenodd" d="M141.596 32.0761H143.76V17.7694H141.596V32.0761Z" fill="black"/>
<path fill-rule="evenodd" clip-rule="evenodd" d="M130.122 32.0761H132.285V17.7694H130.122V32.0761Z" fill="black"/>
<path fill-rule="evenodd" clip-rule="evenodd" d="M132.285 19.9073V24.7468H135.356C136.699 24.7468 137.805 23.6538 137.805 22.327C137.805 21.0003 136.699 19.9073 135.356 19.9073H132.285V19.9073ZM130.122 17.7693H135.356C137.893 17.7693 139.969 19.8203 139.969 22.327C139.969 24.8338 137.893 26.8845 135.356 26.8845H130.122V17.7693V17.7693Z" fill="black"/>
<path fill-rule="evenodd" clip-rule="evenodd" d="M159.735 36.7326L166 22.6468H163.637L157.372 36.7326H159.735" fill="black"/>
<path fill-rule="evenodd" clip-rule="evenodd" d="M160.434 33.5085L155.603 22.6468H157.967L161.299 30.1381H160.434V33.5085" fill="black"/>
<path fill-rule="evenodd" clip-rule="evenodd" d="M152.615 27.9406C152.338 29.1303 151.405 29.986 150.221 30.3048C147.719 30.9787 147.096 26.9621 150.814 27.5144C151.453 27.5906 152.01 27.7469 152.615 27.9406V27.9406ZM152.615 32.0761H154.779V26.9307C155.118 21.6238 148.308 20.3755 145.731 24.2012L147.472 25.3557C148.732 23.1793 152.327 23.68 152.564 26.0123C151.483 25.7297 150.316 25.5246 149.249 25.6312C147.585 25.7976 146.16 26.8423 145.933 28.553C145.811 29.4772 146.02 30.617 146.673 31.3115C147.691 32.3932 149.362 32.5392 150.735 32.1696C151.508 31.9613 152.117 31.5076 152.615 30.9215V32.0761V32.0761Z" fill="black"/>
</svg>
