<svg width="170" height="50" viewBox="0 0 170 50" fill="none" xmlns="http://www.w3.org/2000/svg">
<rect width="170" height="50" rx="5" fill="black"/>
<path fill-rule="evenodd" clip-rule="evenodd" d="M64.7727 29.409H57.7615V31.4644H62.734C62.4882 34.3471 60.0609 35.5763 57.7698 35.5763C54.8385 35.5763 52.2806 33.2975 52.2806 30.1036C52.2806 26.9923 54.719 24.5961 57.7761 24.5961C60.135 24.5961 61.5249 26.0817 61.5249 26.0817L62.9817 24.5912C62.9817 24.5912 61.1119 22.5347 57.7017 22.5347C53.3594 22.5345 50 26.1557 50 30.067C50 33.8995 53.1599 37.6366 57.8124 37.6366C61.9042 37.6365 64.8994 34.8672 64.8994 30.7716C64.8994 29.9076 64.7725 29.4083 64.7725 29.4083L64.7727 29.409" fill="white"/>
<path fill-rule="evenodd" clip-rule="evenodd" d="M70.7328 27.9204C67.8557 27.9204 65.7939 30.1424 65.7939 32.7345C65.7939 35.3644 67.7936 37.6281 70.7663 37.6281C73.4574 37.6281 75.662 35.5956 75.662 32.7909C75.662 29.576 73.0975 27.9204 70.7328 27.9204V27.9204ZM70.7612 29.8269C72.1761 29.8269 73.5167 30.9569 73.5167 32.778C73.5167 34.5603 72.1816 35.7227 70.7547 35.7227C69.1869 35.7227 67.9498 34.482 67.9498 32.7639C67.9498 31.0825 69.1716 29.8269 70.7612 29.8269V29.8269Z" fill="white"/>
<path fill-rule="evenodd" clip-rule="evenodd" d="M81.5902 27.9204C78.7132 27.9204 76.6514 30.1424 76.6514 32.7345C76.6514 35.3644 78.6512 37.6281 81.624 37.6281C84.315 37.6281 86.5196 35.5956 86.5196 32.7909C86.5196 29.576 83.9553 27.9204 81.5902 27.9204V27.9204ZM81.6186 29.8269C83.0334 29.8269 84.3741 30.9569 84.3741 32.778C84.3741 34.5603 83.0391 35.7227 81.612 35.7227C80.0443 35.7227 78.8074 34.482 78.8074 32.7639C78.8074 31.0825 80.0289 29.8269 81.6186 29.8269V29.8269Z" fill="white"/>
<path fill-rule="evenodd" clip-rule="evenodd" d="M92.2252 27.9253C89.5847 27.9253 87.5088 30.2105 87.5088 32.7752C87.5088 35.6968 89.9152 37.6343 92.1796 37.6343C93.58 37.6343 94.3244 37.0851 94.874 36.4548V37.4119C94.874 39.0865 93.8449 40.0893 92.2916 40.0893C90.791 40.0893 90.0383 38.9869 89.7767 38.3613L87.8886 39.1411C88.5586 40.5406 89.9069 41.9998 92.3071 41.9998C94.9328 41.9998 96.9338 40.3659 96.9338 36.9391V28.2171H94.8741V29.0394C94.2409 28.365 93.3748 27.9254 92.2252 27.9254V27.9253V27.9253ZM92.4163 29.8281C93.711 29.8281 95.0405 30.9203 95.0405 32.7854C95.0405 34.6814 93.7138 35.7263 92.3877 35.7263C90.9801 35.7263 89.6701 34.5969 89.6701 32.8036C89.6701 30.9402 91.0306 29.8281 92.4163 29.8281V29.8281Z" fill="white"/>
<path fill-rule="evenodd" clip-rule="evenodd" d="M106.525 27.9141C104.034 27.9141 101.943 29.8722 101.943 32.7614C101.943 35.8187 104.274 37.6319 106.764 37.6319C108.843 37.6319 110.119 36.5086 110.88 35.5017L109.182 34.3854C108.741 35.0611 108.004 35.7217 106.775 35.7217C105.394 35.7215 104.759 34.9743 104.365 34.2505L110.953 31.5499L110.611 30.7584C109.974 29.2086 108.49 27.9144 106.525 27.9144L106.525 27.9141V27.9141ZM106.611 29.7809C107.509 29.7809 108.155 30.2523 108.429 30.8176L104.03 32.6342C103.84 31.2279 105.189 29.7809 106.611 29.7809H106.611V29.7809Z" fill="white"/>
<path fill-rule="evenodd" clip-rule="evenodd" d="M98.5854 37.3433H100.749V23.0366H98.5854V37.3433Z" fill="white"/>
<path fill-rule="evenodd" clip-rule="evenodd" d="M127.596 37.3433H129.759V23.0366H127.596V37.3433Z" fill="white"/>
<path fill-rule="evenodd" clip-rule="evenodd" d="M116.122 37.3433H118.285V23.0366H116.122V37.3433Z" fill="white"/>
<path fill-rule="evenodd" clip-rule="evenodd" d="M118.285 25.1746V30.0142H121.356C122.699 30.0142 123.805 28.9212 123.805 27.5943C123.805 26.2676 122.699 25.1746 121.356 25.1746H118.285V25.1746ZM116.122 23.0366H121.356C123.893 23.0366 125.969 25.0877 125.969 27.5943C125.969 30.1011 123.893 32.1519 121.356 32.1519H116.122V23.0366V23.0366Z" fill="white"/>
<path fill-rule="evenodd" clip-rule="evenodd" d="M145.735 41.9999L152 27.9141H149.637L143.372 41.9999H145.735" fill="white"/>
<path fill-rule="evenodd" clip-rule="evenodd" d="M146.434 38.7757L141.604 27.9141H143.967L147.299 35.4053H146.434V38.7757" fill="white"/>
<path fill-rule="evenodd" clip-rule="evenodd" d="M138.615 33.2081C138.338 34.3978 137.405 35.2535 136.221 35.5722C133.719 36.2461 133.096 32.2296 136.814 32.7819C137.453 32.858 138.01 33.0144 138.615 33.2081V33.2081ZM138.615 37.3436H140.779V32.1982C141.117 26.8913 134.308 25.643 131.731 29.4687L133.472 30.6232C134.732 28.4467 138.327 28.9475 138.564 31.2798C137.483 30.9972 136.316 30.792 135.249 30.8986C133.585 31.065 132.16 32.1097 131.933 33.8205C131.811 34.7446 132.019 35.8845 132.673 36.5789C133.691 37.6607 135.362 37.8066 136.735 37.4371C137.508 37.2287 138.116 36.7751 138.615 36.1889V37.3436V37.3436Z" fill="white"/>
<path fill-rule="evenodd" clip-rule="evenodd" d="M58.6026 13.0406H55.313V13.9498H57.6462C57.5308 15.2249 56.392 15.7685 55.3169 15.7685C53.9416 15.7685 52.7413 14.7605 52.7413 13.3479C52.7413 11.9717 53.8854 10.9117 55.3198 10.9117C56.4268 10.9117 57.0789 11.5689 57.0789 11.5689L57.7624 10.9097C57.7624 10.9097 56.885 10 55.2849 10C53.2475 9.99985 51.6714 11.6017 51.6714 13.3316C51.6714 15.0268 53.154 16.6798 55.3368 16.6798C57.2569 16.6798 58.6623 15.4548 58.6623 13.6433C58.6623 13.2612 58.6026 13.0403 58.6026 13.0403V13.0406" fill="white"/>
<path fill-rule="evenodd" clip-rule="evenodd" d="M72.6445 16.6798H73.8097V10H72.6445V16.6798Z" fill="white"/>
<path fill-rule="evenodd" clip-rule="evenodd" d="M66.2745 16.6798H67.3627V10.9981H69.1489V10C67.5954 10 66.0419 10 64.4883 10V10.9981H66.2745V16.6798" fill="white"/>
<path fill-rule="evenodd" clip-rule="evenodd" d="M59.8276 16.6798H63.3231V15.6817H60.7392V13.8391H63.012V12.8408H60.7392V10.9981H63.3231V10H59.8276C59.8276 12.2266 59.8276 14.4531 59.8276 16.6798" fill="white"/>
<path fill-rule="evenodd" clip-rule="evenodd" d="M76.7609 16.6798H77.849V10.9981H79.6352V10C78.0817 10 76.5281 10 74.9746 10V10.9981H76.7609V16.6798" fill="white"/>
<path fill-rule="evenodd" clip-rule="evenodd" d="M85.4613 10C83.4905 9.99985 81.9658 11.6017 81.9658 13.3319C81.9658 15.0138 83.3773 16.6538 85.4613 16.6798C87.5453 16.6538 88.9567 15.0138 88.9567 13.3319C88.9567 11.6017 87.4321 9.99985 85.4613 10V10ZM85.4613 15.7687C84.1439 15.7531 83.0009 14.75 83.0009 13.3482C83.0009 11.983 84.0897 10.9293 85.4613 10.9122C86.833 10.9293 87.9217 11.983 87.9217 13.3482C87.9217 14.75 86.7787 15.7531 85.4613 15.7687V15.7687Z" fill="white"/>
<path fill-rule="evenodd" clip-rule="evenodd" d="M90.1216 16.6798H91.0162V11.8141L93.8891 16.6798H94.7822V10H93.8876V14.8631L91.0162 10H90.1216V16.6798" fill="white"/>
<path fill-rule="evenodd" clip-rule="evenodd" d="M14.567 13.1426L26.1159 25.0176L14.6224 36.9962C14.287 36.7772 14.1072 36.3018 14.1042 35.6878C14.0984 34.5108 14.0069 15.8288 14 14.4271C13.9968 13.7548 14.2343 13.3446 14.567 13.1426V13.1426ZM29.9244 21.0486L15.8808 13.1588C15.7308 13.0743 15.5605 13.0229 15.3908 13L26.5937 24.5197L29.9244 21.0486V21.0486ZM30.5486 28.5863L27.0746 25.0143L30.5451 21.3975L35.3244 24.0821C36.5018 24.7431 35.8996 25.5702 35.3244 25.8945L30.5486 28.5863V28.5863ZM15.5745 37C15.6725 36.9621 15.7747 36.9137 15.8808 36.854L29.9272 28.9365L26.5971 25.5123L15.5745 37V37Z" fill="white"/>
</svg>
