<svg width="55" height="27" viewBox="0 0 55 27" fill="none" xmlns="http://www.w3.org/2000/svg">
<path d="M0 12.2536C0.170438 11.4329 0.290746 10.5994 0.517042 9.79444C2.20424 3.789 7.77571 -0.259985 13.9888 0.0164403C15.7333 0.093782 17.3432 0.703922 18.88 1.49739C21.8462 3.02704 24.4557 5.03935 26.8447 7.35961C29.3225 9.76579 31.8204 12.1519 34.324 14.5295C35.8479 15.9775 37.5881 17.1276 39.3741 18.2347C42.7571 20.3315 46.1959 17.5845 46.9206 15.0193C47.8745 11.6378 45.5629 8.2075 42.0582 7.86376C41.2289 7.78212 40.4812 8.04852 39.8109 8.44955C38.509 9.2287 37.2572 10.0895 35.9883 10.9202C35.825 11.0276 35.676 11.1565 35.603 11.2124C33.7224 9.3576 31.8662 7.52718 29.9799 5.66525C32.0381 3.97949 34.1578 2.36677 36.6113 1.28399C37.7299 0.789859 38.9129 0.328671 40.1117 0.149639C43.6924 -0.384592 46.9264 0.616556 49.7637 2.81077C52.7327 5.10667 54.4428 8.15881 54.9055 11.8956C54.9212 12.0173 54.9685 12.1347 55 12.2551C55 13.0428 55 13.8305 55 14.6183C54.8296 15.4375 54.7064 16.2711 54.4815 17.076C52.8215 23.0041 47.3675 27.0331 41.2189 26.8597C39.1607 26.8025 37.3217 25.9846 35.5715 24.9878C32.8745 23.451 30.3595 21.6678 28.1237 19.4894C25.2392 16.6779 22.336 13.885 19.3541 11.1794C18.214 10.1439 16.8834 9.29029 15.5557 8.49395C12.4663 6.64062 8.48038 9.07688 7.95188 12.4756C7.44486 15.7297 9.5603 18.5785 12.8344 18.9652C13.4532 19.0382 14.1965 18.9079 14.7379 18.61C16.2045 17.8007 17.5938 16.8526 19.0103 15.956C19.175 15.8514 19.3225 15.7197 19.3999 15.661C21.2876 17.4971 23.1567 19.3146 25.0988 21.2023C24.0132 22.0087 22.9905 22.8122 21.9235 23.5512C19.9441 24.9233 17.8688 26.1436 15.4812 26.632C11.9751 27.3496 8.7525 26.5017 5.85219 24.5051C2.52077 22.2121 0.607273 19.0067 0.0959586 14.9806C0.0802038 14.8589 0.0343755 14.74 0.00143365 14.6211C1.39872e-06 13.8291 0 13.0414 0 12.2536Z" fill="white"/>
</svg>
