<svg width="70" height="24" viewBox="0 0 70 24" fill="none" xmlns="http://www.w3.org/2000/svg">
<path d="M62.647 20.0471H61.4067V18.9179H65.2167V20.0471H63.9763V23.1028H62.647V20.0471Z" fill="url(#paint0_linear_236_42062)"/>
<path d="M65.3045 21.0103C65.3045 22.262 66.261 23.1028 68.051 23.1028H70V21.9724H68.051C67.223 21.9724 66.6778 21.6926 66.6778 21.0103C66.6778 20.3281 67.223 20.0482 68.051 20.0482H70V18.9179H68.051C66.2599 18.9179 65.3045 19.7587 65.3045 21.0103Z" fill="url(#paint1_linear_236_42062)"/>
<path d="M57.288 18.9179L57.9967 21.4147L58.7053 18.9179H61.053V23.1017H59.7248V19.6958L58.7582 23.1017H57.2351L56.2685 19.698V23.1017H54.9403V18.9179H57.288Z" fill="url(#paint2_linear_236_42062)"/>
<path d="M51.8401 18.6666C51.4695 18.6666 51.0324 19.0019 50.6696 19.567C50.2934 20.1514 50.068 20.8762 50.068 21.5042C50.068 22.4248 50.6155 23.3529 51.8401 23.3529C53.0635 23.3529 53.6122 22.4248 53.6122 21.5042C53.6122 20.8751 53.388 20.1514 53.0117 19.567C52.6478 19.0019 52.2096 18.6666 51.8401 18.6666Z" fill="url(#paint3_linear_236_42062)"/>
<path d="M24.9032 19.9588C23.94 19.9588 23.4601 20.5015 23.4601 21.551C23.4601 22.6185 23.94 23.1517 24.9021 23.1528C25.6906 23.1528 26.1559 22.8612 26.2652 22.1524H25.6388C25.5588 22.5653 25.3257 22.6994 24.9032 22.6994C24.3332 22.6994 24.0864 22.3578 24.0864 21.7256V21.3796C24.0864 20.7389 24.3523 20.4111 24.9032 20.4111C25.3493 20.4111 25.5723 20.5814 25.6344 20.9678H26.2607C26.1469 20.2547 25.7053 19.9588 24.9032 19.9588Z" fill="url(#paint4_linear_236_42062)"/>
<path d="M28.0091 21.304C27.572 21.304 27.4019 21.452 27.4019 21.8107V23.1028H26.8228V20.8421H27.3782V21.2413C27.4875 20.9858 27.706 20.8421 28.0428 20.8421H28.3042V21.304H28.0091Z" fill="url(#paint5_linear_236_42062)"/>
<path fill-rule="evenodd" clip-rule="evenodd" d="M30.8672 22.3716H30.2881C30.2498 22.6632 30.0313 22.7484 29.762 22.7473C29.3959 22.7473 29.1965 22.5281 29.1965 22.1332V21.9629H30.8582V21.8458C30.8582 21.1242 30.4729 20.7921 29.7609 20.7921C28.9779 20.7921 28.6073 21.2136 28.6073 21.9768C28.6073 22.7303 28.9678 23.1518 29.7609 23.1518C30.3873 23.1518 30.7917 22.9144 30.8672 22.3716ZM30.2543 21.6138H29.2055C29.2438 21.3307 29.4139 21.1966 29.7553 21.1966C30.0786 21.1966 30.2261 21.336 30.2543 21.6138Z" fill="url(#paint6_linear_236_42062)"/>
<path fill-rule="evenodd" clip-rule="evenodd" d="M32.2494 21.7703L32.8713 21.716V21.6128C32.8713 21.303 32.7147 21.1955 32.4342 21.1955C32.1593 21.1955 31.9971 21.2987 31.9689 21.5414H31.3797C31.4124 21.0572 31.7695 20.7921 32.4286 20.7921C33.0842 20.7921 33.4537 21.0433 33.4537 21.6223V23.1028H32.8983V22.8155C32.7271 23.04 32.4668 23.1518 32.1154 23.1518C31.5645 23.1518 31.2941 22.8686 31.2941 22.4876C31.2952 22.0257 31.5982 21.8288 32.2494 21.7703ZM32.8713 22.2503V22.0534L32.3012 22.1077C32.0207 22.1343 31.8833 22.2066 31.8833 22.4078V22.5014C31.8833 22.676 32.0309 22.7665 32.2911 22.7665C32.6336 22.7665 32.8713 22.5909 32.8713 22.2503Z" fill="url(#paint7_linear_236_42062)"/>
<path d="M34.1532 20.8421H33.8491V21.2764H34.1532V22.4833C34.1532 22.9187 34.3098 23.1028 34.7796 23.1028H35.3204V22.6675H34.9836C34.7988 22.6675 34.7323 22.6004 34.7323 22.4163V21.2775H35.3215V20.8421H34.7323V20.1375H34.1532V20.8421Z" fill="url(#paint8_linear_236_42062)"/>
<path fill-rule="evenodd" clip-rule="evenodd" d="M37.3392 22.3716H37.9182C37.8428 22.9144 37.4383 23.1518 36.812 23.1518C36.0188 23.1518 35.6583 22.7303 35.6583 21.9768C35.6583 21.2136 36.029 20.7921 36.812 20.7921C37.5239 20.7921 37.9092 21.1242 37.9092 21.8458V21.9629H36.2476V22.1332C36.2476 22.5281 36.4469 22.7473 36.8131 22.7473C37.0834 22.7484 37.3008 22.6632 37.3392 22.3716ZM36.2565 21.6138H37.3054C37.2772 21.336 37.1296 21.1966 36.8074 21.1966C36.4661 21.1966 36.2949 21.3307 36.2565 21.6138Z" fill="url(#paint9_linear_236_42062)"/>
<path fill-rule="evenodd" clip-rule="evenodd" d="M40.1443 22.799C39.9876 23.031 39.7356 23.1517 39.3805 23.1517C38.682 23.1517 38.3406 22.7122 38.3406 21.9767C38.3406 21.2317 38.6831 20.7921 39.3805 20.7921C39.7173 20.7921 39.9595 20.9092 40.1206 21.12V19.8278H40.6996V23.1028H40.1443V22.799ZM40.1217 21.7979V22.1385C40.1217 22.51 39.9325 22.7441 39.5325 22.7441C39.1337 22.7441 38.9433 22.5291 38.9433 22.1385V21.7979C38.9433 21.4116 39.1337 21.2008 39.5325 21.2008C39.9314 21.2008 40.1217 21.4116 40.1217 21.7979Z" fill="url(#paint10_linear_236_42062)"/>
<path fill-rule="evenodd" clip-rule="evenodd" d="M42.572 19.8278H43.151V21.1157C43.3076 20.905 43.5453 20.7932 43.8822 20.7932C44.5896 20.7932 44.9366 21.2328 44.9366 21.9778C44.9366 22.7132 44.5851 23.1528 43.8822 23.1528C43.5306 23.1528 43.2794 23.0315 43.1274 22.7984V23.1039H42.572V19.8278ZM44.3294 22.1385V21.7979C44.3294 21.4116 44.139 21.2008 43.7458 21.2008C43.3515 21.2008 43.1622 21.4031 43.1522 21.7703V22.1385C43.1522 22.511 43.347 22.7441 43.7413 22.7441C44.139 22.7441 44.3294 22.51 44.3294 22.1385Z" fill="url(#paint11_linear_236_42062)"/>
<path d="M46.1059 23.3316C46.0338 23.5243 45.9493 23.5647 45.6925 23.5647H45.4852V24H45.822C46.2771 24 46.4393 23.8872 46.6241 23.3987L47.6065 20.8421H47.0556L46.4529 22.4259L45.8311 20.8421H45.2182L46.1533 23.1975L46.1059 23.3316Z" fill="url(#paint12_linear_236_42062)"/>
<path d="M22.9233 0.583828V15.0444C22.9233 15.3664 22.6438 15.6283 22.3002 15.6283H18.2763C17.9328 15.6283 17.6533 15.3664 17.6533 15.0444V0.583828C17.6533 0.261904 17.9328 0 18.2763 0H22.3002C22.6438 0 22.9233 0.261904 22.9233 0.583828ZM16.6312 14.9736L11.9435 7.45881L16.3866 0.683409C16.6007 0.39422 16.3808 0 16.0052 0L11.121 0.00818453C10.9666 0.00818453 10.8211 0.0804807 10.7352 0.20052L7.28342 5.69641H5.2686V0.583828C5.2686 0.261904 4.98908 0 4.64551 0H0.623089C0.278061 0 0 0.261904 0 0.583828V15.0444C0 15.3664 0.279517 15.6283 0.623089 15.6283H4.64696C4.99054 15.6283 5.27006 15.3664 5.27006 15.0444V9.95372H7.72168L11.153 15.4224C11.2375 15.5533 11.3889 15.6351 11.5519 15.6351H16.2352C16.5992 15.6351 16.822 15.2627 16.6312 14.9736ZM69.377 15.6283C69.7205 15.6283 70 15.3664 70 15.0444V0.583828C70 0.261904 69.7205 0 69.377 0H65.4986C65.155 0 64.8755 0.261904 64.8755 0.583828L64.9003 7.98124L57.86 0.00818453H53.3877C53.0441 0.00818453 52.7646 0.270089 52.7646 0.592012V15.054C52.7646 15.3759 53.0427 15.6365 53.3862 15.6365H57.2558C57.5994 15.6365 57.8774 15.3759 57.8774 15.054V7.64708L64.8464 15.6297L69.377 15.6283ZM51.1516 0.645212V14.9844C51.1516 15.3405 50.8429 15.6297 50.463 15.6297H25.2235C24.8435 15.6297 24.5349 15.3405 24.5349 14.9844V0.645212C24.5349 0.289186 24.8435 0 25.2235 0H50.4644C50.8429 0 51.1516 0.289186 51.1516 0.645212ZM45.9135 4.155C45.9135 4.02541 45.7869 3.92856 45.65 3.95448C42.9233 4.46465 33.2683 4.5424 30.0306 3.95039C29.8967 3.92584 29.7729 4.02268 29.7729 4.15227V11.2468C29.7729 11.3724 29.8909 11.4678 30.0248 11.4501C32.7092 11.0777 42.9145 11.1391 45.6689 11.4583C45.8 11.4733 45.9135 11.3778 45.9135 11.255V4.155Z" fill="url(#paint13_linear_236_42062)"/>
<path d="M22.9233 0.583828V15.0444C22.9233 15.3664 22.6438 15.6283 22.3002 15.6283H18.2763C17.9328 15.6283 17.6533 15.3664 17.6533 15.0444V0.583828C17.6533 0.261904 17.9328 0 18.2763 0H22.3002C22.6438 0 22.9233 0.261904 22.9233 0.583828ZM16.6312 14.9736L11.9435 7.45881L16.3866 0.683409C16.6007 0.39422 16.3808 0 16.0052 0L11.121 0.00818453C10.9666 0.00818453 10.8211 0.0804807 10.7352 0.20052L7.28342 5.69641H5.2686V0.583828C5.2686 0.261904 4.98908 0 4.64551 0H0.623089C0.278061 0 0 0.261904 0 0.583828V15.0444C0 15.3664 0.279517 15.6283 0.623089 15.6283H4.64696C4.99054 15.6283 5.27006 15.3664 5.27006 15.0444V9.95372H7.72168L11.153 15.4224C11.2375 15.5533 11.3889 15.6351 11.5519 15.6351H16.2352C16.5992 15.6351 16.822 15.2627 16.6312 14.9736ZM69.377 15.6283C69.7205 15.6283 70 15.3664 70 15.0444V0.583828C70 0.261904 69.7205 0 69.377 0H65.4986C65.155 0 64.8755 0.261904 64.8755 0.583828L64.9003 7.98124L57.86 0.00818453H53.3877C53.0441 0.00818453 52.7646 0.270089 52.7646 0.592012V15.054C52.7646 15.3759 53.0427 15.6365 53.3862 15.6365H57.2558C57.5994 15.6365 57.8774 15.3759 57.8774 15.054V7.64708L64.8464 15.6297L69.377 15.6283ZM51.1516 0.645212V14.9844C51.1516 15.3405 50.8429 15.6297 50.463 15.6297H25.2235C24.8435 15.6297 24.5349 15.3405 24.5349 14.9844V0.645212C24.5349 0.289186 24.8435 0 25.2235 0H50.4644C50.8429 0 51.1516 0.289186 51.1516 0.645212ZM45.9135 4.155C45.9135 4.02541 45.7869 3.92856 45.65 3.95448C42.9233 4.46465 33.2683 4.5424 30.0306 3.95039C29.8967 3.92584 29.7729 4.02268 29.7729 4.15227V11.2468C29.7729 11.3724 29.8909 11.4678 30.0248 11.4501C32.7092 11.0777 42.9145 11.1391 45.6689 11.4583C45.8 11.4733 45.9135 11.3778 45.9135 11.255V4.155Z" fill="url(#paint14_linear_236_42062)"/>
<defs>
<linearGradient id="paint0_linear_236_42062" x1="1.22848e-08" y1="18.6668" x2="70.0401" y2="18.7784" gradientUnits="userSpaceOnUse">
<stop stop-color="#3E6CB2"/>
<stop offset="0.191666" stop-color="#3E3189"/>
<stop offset="0.445728" stop-color="#AA2E7D"/>
<stop offset="1" stop-color="#D62C2C"/>
</linearGradient>
<linearGradient id="paint1_linear_236_42062" x1="1.22848e-08" y1="18.6668" x2="70.0401" y2="18.7784" gradientUnits="userSpaceOnUse">
<stop stop-color="#3E6CB2"/>
<stop offset="0.191666" stop-color="#3E3189"/>
<stop offset="0.445728" stop-color="#AA2E7D"/>
<stop offset="1" stop-color="#D62C2C"/>
</linearGradient>
<linearGradient id="paint2_linear_236_42062" x1="1.22848e-08" y1="18.6668" x2="70.0401" y2="18.7784" gradientUnits="userSpaceOnUse">
<stop stop-color="#3E6CB2"/>
<stop offset="0.191666" stop-color="#3E3189"/>
<stop offset="0.445728" stop-color="#AA2E7D"/>
<stop offset="1" stop-color="#D62C2C"/>
</linearGradient>
<linearGradient id="paint3_linear_236_42062" x1="1.22848e-08" y1="18.6668" x2="70.0401" y2="18.7784" gradientUnits="userSpaceOnUse">
<stop stop-color="#3E6CB2"/>
<stop offset="0.191666" stop-color="#3E3189"/>
<stop offset="0.445728" stop-color="#AA2E7D"/>
<stop offset="1" stop-color="#D62C2C"/>
</linearGradient>
<linearGradient id="paint4_linear_236_42062" x1="1.22848e-08" y1="18.6668" x2="70.0401" y2="18.7784" gradientUnits="userSpaceOnUse">
<stop stop-color="#3E6CB2"/>
<stop offset="0.191666" stop-color="#3E3189"/>
<stop offset="0.445728" stop-color="#AA2E7D"/>
<stop offset="1" stop-color="#D62C2C"/>
</linearGradient>
<linearGradient id="paint5_linear_236_42062" x1="1.22848e-08" y1="18.6668" x2="70.0401" y2="18.7784" gradientUnits="userSpaceOnUse">
<stop stop-color="#3E6CB2"/>
<stop offset="0.191666" stop-color="#3E3189"/>
<stop offset="0.445728" stop-color="#AA2E7D"/>
<stop offset="1" stop-color="#D62C2C"/>
</linearGradient>
<linearGradient id="paint6_linear_236_42062" x1="1.22848e-08" y1="18.6668" x2="70.0401" y2="18.7784" gradientUnits="userSpaceOnUse">
<stop stop-color="#3E6CB2"/>
<stop offset="0.191666" stop-color="#3E3189"/>
<stop offset="0.445728" stop-color="#AA2E7D"/>
<stop offset="1" stop-color="#D62C2C"/>
</linearGradient>
<linearGradient id="paint7_linear_236_42062" x1="1.22848e-08" y1="18.6668" x2="70.0401" y2="18.7784" gradientUnits="userSpaceOnUse">
<stop stop-color="#3E6CB2"/>
<stop offset="0.191666" stop-color="#3E3189"/>
<stop offset="0.445728" stop-color="#AA2E7D"/>
<stop offset="1" stop-color="#D62C2C"/>
</linearGradient>
<linearGradient id="paint8_linear_236_42062" x1="1.22848e-08" y1="18.6668" x2="70.0401" y2="18.7784" gradientUnits="userSpaceOnUse">
<stop stop-color="#3E6CB2"/>
<stop offset="0.191666" stop-color="#3E3189"/>
<stop offset="0.445728" stop-color="#AA2E7D"/>
<stop offset="1" stop-color="#D62C2C"/>
</linearGradient>
<linearGradient id="paint9_linear_236_42062" x1="1.22848e-08" y1="18.6668" x2="70.0401" y2="18.7784" gradientUnits="userSpaceOnUse">
<stop stop-color="#3E6CB2"/>
<stop offset="0.191666" stop-color="#3E3189"/>
<stop offset="0.445728" stop-color="#AA2E7D"/>
<stop offset="1" stop-color="#D62C2C"/>
</linearGradient>
<linearGradient id="paint10_linear_236_42062" x1="1.22848e-08" y1="18.6668" x2="70.0401" y2="18.7784" gradientUnits="userSpaceOnUse">
<stop stop-color="#3E6CB2"/>
<stop offset="0.191666" stop-color="#3E3189"/>
<stop offset="0.445728" stop-color="#AA2E7D"/>
<stop offset="1" stop-color="#D62C2C"/>
</linearGradient>
<linearGradient id="paint11_linear_236_42062" x1="1.22848e-08" y1="18.6668" x2="70.0401" y2="18.7784" gradientUnits="userSpaceOnUse">
<stop stop-color="#3E6CB2"/>
<stop offset="0.191666" stop-color="#3E3189"/>
<stop offset="0.445728" stop-color="#AA2E7D"/>
<stop offset="1" stop-color="#D62C2C"/>
</linearGradient>
<linearGradient id="paint12_linear_236_42062" x1="1.22848e-08" y1="18.6668" x2="70.0401" y2="18.7784" gradientUnits="userSpaceOnUse">
<stop stop-color="#3E6CB2"/>
<stop offset="0.191666" stop-color="#3E3189"/>
<stop offset="0.445728" stop-color="#AA2E7D"/>
<stop offset="1" stop-color="#D62C2C"/>
</linearGradient>
<linearGradient id="paint13_linear_236_42062" x1="1.22848e-08" y1="18.6668" x2="70.0401" y2="18.7784" gradientUnits="userSpaceOnUse">
<stop stop-color="#3E6CB2"/>
<stop offset="0.191666" stop-color="#3E3189"/>
<stop offset="0.445728" stop-color="#AA2E7D"/>
<stop offset="1" stop-color="#D62C2C"/>
</linearGradient>
<linearGradient id="paint14_linear_236_42062" x1="1.22848e-08" y1="18.6668" x2="70.0401" y2="18.7784" gradientUnits="userSpaceOnUse">
<stop stop-color="#3E6CB2"/>
<stop offset="0.191666" stop-color="#3E3189"/>
<stop offset="0.445728" stop-color="#AA2E7D"/>
<stop offset="1" stop-color="#D62C2C"/>
</linearGradient>
</defs>
</svg>
