<svg width="70" height="18" viewBox="0 0 70 18" fill="none" xmlns="http://www.w3.org/2000/svg">
<path d="M44.1767 5.3024H39.8208V0.964918H53.2013V5.3024H48.8452V17.0394H44.1767V5.3024Z" fill="#E30611"/>
<path d="M53.5098 9.00214C53.5098 13.8096 56.8688 17.0394 63.1554 17.0394H70V12.6976H63.1554C60.2475 12.6976 58.3327 11.6226 58.3327 9.00214C58.3327 6.38167 60.2475 5.30643 63.1554 5.30643H70V0.964918H63.1554C56.8649 0.964918 53.5098 4.19442 53.5098 9.00214Z" fill="#E30611"/>
<path d="M25.3563 0.964918L27.845 10.5554L30.3336 0.964918H38.5786V17.0351H33.914V3.95313L30.5194 17.0351H25.1704L21.7758 3.96144V17.0351H17.1112V0.964918H25.3563Z" fill="#E30611"/>
<path d="M6.2234 0C4.92173 0 3.38678 1.28782 2.11265 3.45845C0.791321 5.70287 0 8.48706 0 10.899C0 14.4353 1.92287 18 6.2234 18C10.52 18 12.4468 14.4353 12.4468 10.899C12.4468 8.48278 11.6594 5.70287 10.3381 3.45845C9.06002 1.28782 7.52113 0 6.2234 0Z" fill="#E30611"/>
</svg>
