<svg width="55" height="56" viewBox="0 0 55 56" fill="none" xmlns="http://www.w3.org/2000/svg">
<path d="M39.2734 23.7059C38.4666 35.0437 33.7406 44.5311 24.7272 51.818C23.4721 52.834 22.2022 53.832 20.9274 54.8235C20.1223 55.4484 19.2485 55.5188 18.4941 54.9233C15.5452 52.5919 12.4933 50.38 9.9634 47.561C4.87576 41.8921 1.67001 35.3169 0.493425 27.7894C0.203779 25.9391 0.143226 24.0511 0.00740282 22.1778C-0.0662362 21.1651 0.4116 20.4779 1.34763 20.064C7.13402 17.502 12.9155 14.9301 18.6953 12.3533C19.3139 12.0785 19.9047 12.0539 20.5265 12.3304C26.3456 14.9203 32.1664 17.5036 37.9871 20.0886C38.8692 20.4812 39.293 21.1569 39.2734 22.1205C39.2668 22.5917 39.2734 23.0612 39.2734 23.7059ZM19.2141 32.5323C18.5301 31.8305 17.8951 31.1646 17.2438 30.5167C16.3225 29.5989 15.123 29.5514 14.3097 30.3842C13.5112 31.2006 13.5684 32.3753 14.4603 33.2751C15.6418 34.4645 16.8298 35.649 18.0162 36.8335C19.2583 38.072 20.5854 37.9084 21.4936 36.3983C22.8944 34.0702 24.2903 31.7388 25.6894 29.4091C26.1934 28.5682 26.7204 27.7387 27.1998 26.8847C27.8822 25.6691 27.2637 24.249 25.9414 23.9431C25.1085 23.75 24.287 24.1296 23.7764 24.9754C22.3838 27.2839 20.9994 29.5989 19.6118 31.9106C19.4972 32.0988 19.3745 32.282 19.2141 32.5323Z" fill="white"/>
<path d="M38.8193 35.6784C39.2251 34.2845 39.7079 32.956 39.991 31.5867C40.4214 29.5105 40.7012 27.4049 41.0776 25.3157C41.1234 25.0588 41.3083 24.7529 41.521 24.6122C44.5681 22.5933 45.8739 19.0268 44.789 15.6123C43.7155 12.2322 40.5277 9.99086 36.9129 10.1774C34.2193 10.3164 32.146 11.6056 30.6781 13.8667C30.611 13.9697 30.5505 14.0761 30.4867 14.1808C30.4343 14.2675 30.3819 14.3526 30.2837 14.5145C27.2514 13.1681 24.2257 11.8232 21.123 10.4457C22.1229 8.75892 23.0491 7.10324 24.0751 5.51137C24.5857 4.71952 25.7116 4.53138 26.5445 5.08763C27.2842 5.58172 27.8095 5.55391 28.5131 5.00256C29.2102 4.45612 30.0432 4.06347 30.8581 3.69208C31.2918 3.49412 31.4358 3.26508 31.3998 2.81844C31.372 2.49613 31.3785 2.15747 31.4423 1.84172C31.6092 0.999152 32.3964 0.35128 33.3046 0.346372C35.9621 0.330011 38.6213 0.328374 41.2789 0.344734C42.3949 0.351278 43.2737 1.17748 43.1951 2.29327C43.1296 3.21436 43.488 3.6021 44.2817 3.94404C45.1359 4.31215 45.9132 4.8684 46.6921 5.3903C46.9769 5.58172 47.1749 5.61935 47.4465 5.41812C47.6413 5.27251 47.8655 5.16453 48.0831 5.05164C49.0846 4.53465 50.1695 4.80296 50.7472 5.77641C52.0825 8.0227 53.4015 10.2821 54.6975 12.5513C55.2997 13.6065 54.9888 14.7272 53.8695 15.3047C53.156 15.6729 52.9564 16.0737 53.0725 16.8721C53.1969 17.7294 53.1102 18.6259 53.0415 19.4979C53.0038 19.9789 53.0529 20.3012 53.5455 20.5106C53.876 20.6513 54.1902 20.8771 54.4455 21.1323C55.051 21.736 55.177 22.6146 54.7286 23.3966C53.4113 25.7018 52.0793 27.9988 50.7178 30.2778C50.1434 31.2398 49.0061 31.5491 48.0569 30.9175C47.2976 30.412 46.7805 30.5036 46.0883 31.0239C45.3617 31.5687 44.5124 31.963 43.686 32.3589C43.3097 32.5389 43.1509 32.7352 43.1984 33.1393C43.2262 33.3814 43.2115 33.6301 43.1902 33.8739C43.11 34.7999 42.3753 35.5574 41.4539 35.6637C41.2723 35.685 41.0858 35.6768 40.9025 35.6768C40.2152 35.6784 39.523 35.6784 38.8193 35.6784Z" fill="white"/>
</svg>
