<svg width="45" height="56" viewBox="0 0 45 56" fill="none" xmlns="http://www.w3.org/2000/svg">
<path d="M0.0314867 24.4291C0.0314867 21.2293 0.0297448 18.0294 0.0314867 14.8296C0.0349705 10.839 1.84479 8.04323 5.5341 6.47031C9.97241 4.57863 14.4055 2.67301 18.8369 0.763904C21.1361 -0.227227 23.4337 -0.260323 25.7382 0.725582C30.3141 2.68346 34.904 4.61172 39.459 6.61489C42.8156 8.09026 44.5853 10.7466 44.6237 14.3959C44.6916 20.6858 44.7909 26.9827 44.6028 33.2674C44.3572 41.4996 40.37 47.4394 32.8991 50.9493C30.187 52.2243 27.3965 53.3374 24.6373 54.5132C23.1219 55.1577 21.5925 55.1716 20.0718 54.5236C17.2935 53.3391 14.4804 52.2261 11.7509 50.9371C4.21374 47.3784 0.317157 41.3672 0.0436812 33.048C-0.0468967 30.1791 0.0314867 27.3032 0.0314867 24.4291ZM19.5684 29.0799C18.8769 28.3693 18.2899 27.7579 17.6942 27.1552C17.0967 26.5525 16.5114 25.9358 15.8861 25.3628C14.7452 24.3159 13.0573 24.3542 12 25.422C10.9409 26.4915 10.8974 28.1968 11.9773 29.3064C13.8289 31.2085 15.7067 33.0863 17.6088 34.9379C18.741 36.0405 20.3732 36.0492 21.4862 34.9483C25.2417 31.2277 28.9763 27.4844 32.704 23.7341C33.4547 22.9799 33.655 22.0288 33.3572 21.015C32.7545 18.9631 30.2566 18.3482 28.6976 19.8828C26.2938 22.2483 23.9197 24.6451 21.5402 27.0332C20.8958 27.6795 20.2739 28.3449 19.5684 29.0799Z" fill="white"/>
</svg>
