<svg width="55" height="39" viewBox="0 0 55 39" fill="none" xmlns="http://www.w3.org/2000/svg">
<path d="M54.9988 11.3804C53.3509 13.0474 51.7044 14.7144 50.0433 16.3961C49.4763 15.8762 48.9843 15.4077 48.4746 14.9597C45.969 12.7537 43.1813 10.9912 40.1131 9.67224C39.8384 9.55327 39.6754 9.44165 39.7459 9.08915C40.163 6.98298 40.5596 4.87239 40.9635 2.76475C40.9796 2.67809 41.012 2.59437 41.0678 2.40491C42.4043 3.00415 43.7379 3.54906 45.0231 4.18943C48.5422 5.94164 51.7176 8.19028 54.5405 10.931C54.6757 11.0631 54.846 11.1601 55.0003 11.2732C54.9988 11.3084 54.9988 11.3451 54.9988 11.3804Z" fill="white"/>
<path d="M22.4258 33.4688C22.5212 33.1236 22.6153 32.473 22.8708 31.8943C27.2227 22.0875 31.5951 12.2881 35.9632 2.48716C36.0072 2.38875 36.0454 2.28888 36.091 2.19194C36.4082 1.50897 36.9722 1.22991 37.6082 1.43847C38.2324 1.64263 38.557 2.21691 38.4263 2.93659C38.2074 4.13362 37.9695 5.32624 37.7433 6.52179C36.2217 14.5352 34.6986 22.5487 33.1784 30.5622C32.9155 31.9501 32.6717 33.3425 32.3927 34.7275C31.673 38.2922 27.8851 39.9885 24.7875 38.0939C23.2013 37.1245 22.4787 35.6088 22.4258 33.4688Z" fill="white"/>
<path d="M4.99813 16.333C3.30908 14.6483 1.67583 13.018 0 11.3466C3.98176 7.36778 8.61858 4.37742 13.9105 2.4284C20.5022 0.00203621 27.2701 -0.594273 34.2481 0.596877C34.1938 0.761376 34.1615 0.892093 34.1071 1.014C33.2376 2.97624 32.3564 4.9326 31.5016 6.90219C31.3621 7.22531 31.199 7.30903 30.8597 7.27525C23.0592 6.48947 15.8947 8.27546 9.4117 12.6846C8.20146 13.5071 7.10578 14.4985 5.96897 15.4253C5.62382 15.7058 5.31685 16.0334 4.99813 16.333Z" fill="white"/>
<path d="M28.2701 14.1593C27.198 16.5636 26.1772 18.8636 25.1358 21.1549C25.0727 21.2959 24.8509 21.4237 24.6864 21.4501C21.0248 22.0376 17.8626 23.618 15.1866 26.178C15.1234 26.2382 15.0485 26.2852 15.0118 26.3116C13.3507 24.6534 11.7086 23.0128 10.0137 21.3179C15.0691 16.4329 21.135 14.0858 28.2701 14.1593Z" fill="white"/>
<path d="M39.9247 26.2191C39.0508 25.5538 38.0843 24.8238 37.1282 24.0792C37.0386 24.0101 36.9593 23.8353 36.9798 23.7296C37.4161 21.4134 37.8684 19.1001 38.3179 16.7868C38.3208 16.7707 38.3384 16.7589 38.381 16.7017C40.8103 17.8855 42.9973 19.4188 44.8685 21.2841C43.2073 22.9423 41.5565 24.5903 39.9247 26.2191Z" fill="white"/>
</svg>
